<svg xmlns="http://www.w3.org/2000/svg" version="1.1" xmlns:xlink="http://www.w3.org/1999/xlink" xmlns:svgjs="http://svgjs.com/svgjs" width="1920" height="1080" preserveAspectRatio="none" viewBox="0 0 1920 1080"><g mask="url(&quot;#SvgjsMask1053&quot;)" fill="none"><path d="M1984 1080L0 1080 L0 818.79Q51.75 710.54, 160 762.29Q257.96 700.25, 320 798.2Q356.02 738.22, 416 774.24Q483.85 746.09, 512 813.94Q553.44 759.38, 608 800.83Q641.05 737.88, 704 770.94Q762.73 669.67, 864 728.4Q980.26 684.66, 1024 800.92Q1072.92 689.84, 1184 738.75Q1281.2 675.95, 1344 773.16Q1416.56 749.72, 1440 822.29Q1449.99 736.28, 1536 746.27Q1622.4 672.67, 1696 759.07Q1753.8 720.87, 1792 778.67Q1846.45 737.12, 1888 791.57Q1952.88 760.45, 1984 825.33z" fill="rgba(15, 102, 3, 1)"></path><path d="M1984 1080L0 1080 L0 898.57Q61.02 799.6, 160 860.62Q196.8 801.42, 256 838.23Q331.1 817.33, 352 892.42Q452.28 832.7, 512 932.98Q537.74 798.72, 672 824.45Q767.35 759.8, 832 855.15Q928.04 791.19, 992 887.24Q1065.18 800.42, 1152 873.6Q1259.66 821.26, 1312 928.92Q1319.49 840.4, 1408 847.89Q1472.03 751.92, 1568 815.96Q1687.87 775.83, 1728 895.7Q1813.36 821.06, 1888 906.41Q1918.83 841.24, 1984 872.07z" fill="rgba(17, 148, 11, 1)"></path><path d="M1952 1080L0 1080 L0 920.59Q63.38 887.98, 96 951.36Q193.28 888.64, 256 985.93Q318.55 952.48, 352 1015.04Q437.75 940.79, 512 1026.54Q543.9 898.44, 672 930.34Q732.85 895.19, 768 956.04Q829.29 921.33, 864 982.61Q908.44 867.05, 1024 911.49Q1079.29 870.78, 1120 926.07Q1206.77 852.84, 1280 939.61Q1394.82 894.43, 1440 1009.25Q1461 934.25, 1536 955.25Q1631.93 891.18, 1696 987.12Q1752.64 947.76, 1792 1004.41Q1855.92 908.33, 1952 972.24z" fill="rgba(34, 184, 6, 1)"></path><path d="M2080 1080L0 1080 L0 1086.2Q43.25 969.45, 160 1012.7Q262.42 955.13, 320 1057.55Q339.64 981.19, 416 1000.84Q511.88 936.72, 576 1032.61Q656.1 1016.71, 672 1096.81Q672.68 1001.49, 768 1002.17Q844.27 918.44, 928 994.71Q1010.72 981.43, 1024 1064.14Q1054.89 999.03, 1120 1029.92Q1190.82 1004.74, 1216 1075.56Q1250.76 1014.32, 1312 1049.07Q1352.3 993.37, 1408 1033.67Q1473.58 939.25, 1568 1004.83Q1646.91 987.75, 1664 1066.66Q1759.54 1002.2, 1824 1097.73Q1865.39 1043.12, 1920 1084.51Q1984.59 989.1, 2080 1053.68z" fill="rgba(255, 255, 255, 1)"></path></g><defs><mask id="SvgjsMask1053"><rect width="1920" height="1080" fill="#ffffff"></rect></mask></defs></svg>